<svg width="20" height="20" viewBox="0 0 20 20" fill="none" xmlns="http://www.w3.org/2000/svg">
<path d="M7.50999 0.0027795C7.24307 -0.0120132 6.97619 0.0323728 6.72843 0.132761C6.24683 0.328567 5.91771 0.75434 5.76523 1.17428C5.61192 1.59422 5.56943 2.02416 5.58276 2.4766C5.60526 3.38147 5.83272 4.39049 6.10352 5.36619C6.32515 6.16691 6.57845 6.91597 6.80675 7.55421C6.36382 7.47433 5.90714 7.5677 5.5311 7.81501C4.87952 8.23412 4.48625 8.90152 4.41126 9.53227C4.34293 10.0989 4.47625 10.6129 4.64539 11.0687C4.19545 11.1145 3.75718 11.2645 3.4214 11.5895C2.88481 12.1144 2.6665 12.8785 2.6665 13.7767C2.6665 16.7354 4.24128 18.4702 5.92104 19.2451C7.60081 20.0199 9.36472 20 10.0355 20C10.7645 20 12.4468 19.9383 13.9932 18.8801C15.5389 17.8219 16.8312 15.7297 16.8312 12.2144C16.8312 11.9119 17.0586 10.5546 16.2063 9.40228C16.0238 9.15482 15.7763 8.93402 15.503 8.72571C15.6697 8.18162 16.0663 6.87014 16.3887 5.23621C16.587 4.22802 16.7437 3.20233 16.727 2.31995C16.717 1.87751 16.6779 1.47007 16.5187 1.07013C16.3596 0.670185 15.9755 0.220249 15.4514 0.106931C14.9361 -0.00156503 14.399 0.0816866 13.9407 0.341065C13.5075 0.585197 13.1892 0.936814 12.8992 1.33092C12.3235 2.12165 11.8969 3.11734 11.5719 4.11636C11.4611 4.45798 11.3761 4.7971 11.2853 5.13289C11.1396 4.72061 10.9831 4.3122 10.8162 3.90806C10.3996 2.89987 9.91131 1.90668 9.3064 1.14845C9.00311 0.767671 8.67149 0.431885 8.23905 0.211083C8.01233 0.0930413 7.76403 0.02218 7.50915 0.0027795H7.50999ZM7.37917 1.64338C7.39917 1.64671 7.42833 1.66588 7.48332 1.69504C7.59414 1.75087 7.79245 1.92667 8.00408 2.18997C8.42402 2.7174 8.89312 3.59894 9.27974 4.53381C9.68516 5.50179 10.0332 6.49281 10.3221 7.50172H10.2704C9.68718 7.50172 9.15392 7.74335 8.78647 8.1008C8.3599 7.06412 7.9946 6.00328 7.69246 4.92375C7.44249 4.01555 7.26669 3.10151 7.25002 2.44993C7.24002 2.12498 7.28585 1.86418 7.32835 1.74753C7.34751 1.68921 7.35751 1.67588 7.35417 1.66921C7.36417 1.66588 7.37084 1.64338 7.38 1.64338H7.37917ZM14.8781 1.77336H14.9823C15.0156 1.89001 15.0539 2.06915 15.0606 2.34662C15.0739 3.00069 14.9339 3.94722 14.7481 4.89792C14.5424 5.93296 14.2906 6.95829 13.9932 7.97082C13.4744 7.81207 12.9427 7.6986 12.4043 7.6317C12.5888 6.61771 12.8413 5.61726 13.16 4.63712C13.4558 3.72642 13.8366 2.85404 14.2274 2.32079C14.4223 2.05332 14.6081 1.87751 14.7481 1.79919C14.794 1.77336 14.8398 1.77336 14.8781 1.77336V1.77336ZM10.2696 9.16815C13.3425 9.16815 14.4715 9.87138 14.8781 10.418C15.2856 10.9646 15.1647 11.5311 15.1647 12.2144C15.1647 15.3423 14.1565 16.7487 13.0559 17.5003C11.956 18.2519 10.6404 18.3335 10.0355 18.3335C9.37139 18.3335 7.87743 18.3144 6.62428 17.7344C5.37112 17.1554 4.33293 16.1988 4.33293 13.7767C4.33293 13.1518 4.50208 12.8518 4.59373 12.7618C4.68455 12.6702 4.77537 12.6343 5.08783 12.7093C5.59276 12.8301 6.47763 13.4384 7.30085 14.5324C7.49332 14.7857 7.66913 15.059 7.84827 15.3656C7.79578 15.4273 7.63997 15.5214 7.53582 15.5214C7.40833 15.5214 7.28835 15.4823 7.06672 15.2873C6.84591 15.0915 6.57512 14.7174 6.28599 14.2716L4.87952 15.1831C5.20448 15.6872 5.5336 16.1397 5.94687 16.5104C6.36098 16.8821 6.91757 17.1878 7.53582 17.1878C8.17323 17.1878 8.73648 16.8921 9.12392 16.433C9.22474 16.3163 9.24057 16.143 9.3064 15.9897C9.42638 16.3313 9.56636 16.6446 9.72301 16.8754C10.0746 17.3928 10.5037 17.657 10.5037 17.657L11.4153 16.2755C11.4153 16.2755 11.292 16.2172 11.1028 15.9372C10.9137 15.6572 10.712 15.2015 10.712 14.4791C10.712 14.2183 10.7512 14.0075 10.8428 13.8283C10.9928 13.535 11.2561 13.3334 11.5452 13.1509C11.8349 12.9717 12.1513 12.8401 12.4826 12.761C12.8542 12.6793 13.1242 12.3535 13.1367 11.9728C13.142 11.7878 13.0859 11.6063 12.977 11.4568C12.8682 11.3072 12.7127 11.198 12.5351 11.1462C12.5351 11.1462 11.2136 10.7521 10.1654 10.443C10.0744 10.414 9.99324 10.36 9.93131 10.2872C9.89548 10.2288 9.86632 10.163 9.82716 10.1047C9.77918 9.97138 9.76126 9.82912 9.77467 9.68808C9.78353 9.54437 9.83846 9.40734 9.93131 9.2973C10.003 9.21898 10.0613 9.16732 10.2696 9.16732V9.16815ZM6.41597 9.19398C6.4518 9.17148 6.45514 9.17148 6.65011 9.24647C6.84591 9.32146 7.15837 9.5231 7.48332 9.84555C8.13406 10.4896 8.83397 11.567 9.27974 12.7093C9.38472 12.9759 9.36139 13.0409 9.33223 13.1001C9.30307 13.1584 9.22141 13.2401 9.07143 13.3084C8.91512 13.3751 8.74726 13.4105 8.57733 13.4126C8.44735 13.4092 8.46652 13.3017 8.62899 13.5167L8.57733 13.5425C8.07907 12.856 7.56831 12.296 7.01506 11.8761C7.01506 11.8761 6.50346 11.2679 6.2335 10.6004C6.09685 10.2647 6.05103 9.92971 6.07769 9.71474C6.10352 9.49977 6.13268 9.37645 6.41597 9.19398V9.19398Z" fill="white"/>
</svg>
