<svg width="32" height="32" viewBox="0 0 32 32" fill="none" xmlns="http://www.w3.org/2000/svg">
<path d="M1.69509 30.3049C2.23224 30.8419 2.96068 31.1436 3.72021 31.1436C4.47973 31.1436 5.20817 30.8419 5.74532 30.3049L15.8737 20.1765L26.0022 30.3049C26.5424 30.8267 27.2659 31.1154 28.017 31.1089C28.768 31.1023 29.4864 30.8011 30.0175 30.27C30.5486 29.7389 30.8498 29.0205 30.8563 28.2695C30.8629 27.5185 30.5742 26.7949 30.0524 26.2547L19.924 16.1263L30.0524 5.99784C30.5742 5.45761 30.8629 4.73407 30.8563 3.98304C30.8498 3.23201 30.5486 2.51359 30.0175 1.98251C29.4864 1.45143 28.768 1.15019 28.017 1.14366C27.2659 1.13714 26.5424 1.42585 26.0022 1.94762L15.8737 12.076L5.74532 1.94762C5.20509 1.42585 4.48154 1.13714 3.73051 1.14366C2.97949 1.15019 2.26106 1.45143 1.72999 1.98251C1.19891 2.51359 0.897666 3.23201 0.89114 3.98304C0.884613 4.73407 1.17333 5.45761 1.69509 5.99784L11.8235 16.1263L1.69509 26.2547C1.15811 26.7918 0.856445 27.5203 0.856445 28.2798C0.856445 29.0393 1.15811 29.7678 1.69509 30.3049V30.3049Z" fill="white" stroke="#47BCC7" stroke-width="0.5"/>
</svg>
