<svg width="20" height="20" viewBox="0 0 20 20" fill="none" xmlns="http://www.w3.org/2000/svg">
<path d="M16.6667 10.4167V4.16667C16.6667 3.94097 16.5842 3.74566 16.4193 3.58073C16.2543 3.4158 16.059 3.33333 15.8333 3.33333H9.58333C9.21875 3.33333 8.96267 3.5026 8.8151 3.84115C8.66753 4.19705 8.7283 4.50087 8.9974 4.7526L10.8724 6.6276L3.91927 13.5807C3.75434 13.7457 3.67187 13.941 3.67187 14.1667C3.67187 14.3924 3.75434 14.5877 3.91927 14.7526L5.2474 16.0807C5.41233 16.2457 5.60764 16.3281 5.83333 16.3281C6.05903 16.3281 6.25434 16.2457 6.41927 16.0807L13.3724 9.1276L15.2474 11.0026C15.4036 11.1675 15.599 11.25 15.8333 11.25C15.9375 11.25 16.046 11.2283 16.1589 11.1849C16.4974 11.0373 16.6667 10.7812 16.6667 10.4167ZM20 3.75V16.25C20 17.283 19.6332 18.1662 18.8997 18.8997C18.1662 19.6332 17.283 20 16.25 20H3.75C2.71701 20 1.83377 19.6332 1.10026 18.8997C0.366753 18.1662 0 17.283 0 16.25V3.75C0 2.71701 0.366753 1.83377 1.10026 1.10026C1.83377 0.366753 2.71701 0 3.75 0H16.25C17.283 0 18.1662 0.366753 18.8997 1.10026C19.6332 1.83377 20 2.71701 20 3.75Z" fill="white"/>
</svg>
