<svg width="20" height="20" viewBox="0 0 20 20" fill="none" xmlns="http://www.w3.org/2000/svg">
<path fill-rule="evenodd" clip-rule="evenodd" d="M9.98208 5.96311e-05C7.61194 0.000378601 5.31922 0.843929 3.51405 2.37981C1.70888 3.9157 0.509019 6.04372 0.129108 8.38322C-0.250803 10.7227 0.214016 13.1211 1.44042 15.1493C2.66682 17.1774 4.5748 18.7031 6.82305 19.4534C7.32222 19.5461 7.53615 19.2395 7.53615 18.9757V17.2785C4.76219 17.8775 4.17745 15.9379 4.17745 15.9379C3.98238 15.3266 3.57182 14.8071 3.02222 14.476C2.11659 13.8627 3.09353 13.8699 3.09353 13.8699C3.40987 13.9145 3.71181 14.0309 3.97629 14.2101C4.24077 14.3893 4.4608 14.6266 4.61957 14.9039C4.89578 15.3993 5.35744 15.7647 5.90303 15.9198C6.44862 16.075 7.03348 16.007 7.52902 15.7311C7.56928 15.2251 7.79234 14.7511 8.15655 14.3976C5.94594 14.1408 3.6141 13.2851 3.6141 9.4629C3.59793 8.47019 3.96582 7.5096 4.64096 6.78164C4.33537 5.92178 4.3711 4.97748 4.7408 4.14317C4.7408 4.14317 5.57512 3.87219 7.48623 5.16291C9.12028 4.71718 10.8439 4.71718 12.4779 5.16291C14.3819 3.87219 15.2162 4.14317 15.2162 4.14317C15.5859 4.97748 15.6217 5.92178 15.3161 6.78164C15.9912 7.5096 16.3591 8.47019 16.3429 9.4629C16.3429 13.2994 14.0111 14.1408 11.7862 14.3904C12.0246 14.632 12.2083 14.9218 12.3252 15.2404C12.4421 15.559 12.4893 15.899 12.4637 16.2374V18.9757C12.4637 19.3037 12.6419 19.5533 13.1768 19.4534C15.428 18.7022 17.3379 17.1736 18.5641 15.1416C19.7904 13.1097 20.2526 10.7074 19.868 8.36557C19.4834 6.0237 18.2772 3.89543 16.4655 2.3624C14.6538 0.829367 12.3553 -0.00813922 9.98208 5.96311e-05V5.96311e-05Z" fill="white"/>
</svg>
