<svg width="300" height="273" viewBox="0 0 300 273" fill="none" xmlns="http://www.w3.org/2000/svg">
<g filter="url(#filter0_i_5_76)">
<path d="M17.3859 32.1901L1.39844 0L189.306 4.37579e-06C269.889 4.37579e-06 300 36.7069 300 82.0885C300 127.47 267.38 144.677 267.38 144.677C267.38 144.677 243.936 161.166 182.925 161.166V246.481L146.935 272.864V132.202H189.306C189.306 132.202 269.889 134.424 269.889 82.0885C269.889 29.7526 189.306 32.1901 189.306 32.1901H17.3859Z" fill="url(#paint0_linear_5_76)"/>
<path d="M125.267 109.833V272.792H63.6111C63.6111 272.792 40.3543 272.792 25.2553 262.826C-5.14245 242.764 0.394872 169.339 0.394872 169.339H34.432V202.246C34.432 251.427 86.983 251.069 86.983 202.246V57.0674H125.267H199.111C258.401 57.0674 257.039 109.833 199.111 109.833H125.267Z" fill="url(#paint1_linear_5_76)"/>
</g>
<defs>
<filter id="filter0_i_5_76" x="0" y="0" width="300" height="276.864" filterUnits="userSpaceOnUse" color-interpolation-filters="sRGB">
<feFlood flood-opacity="0" result="BackgroundImageFix"/>
<feBlend mode="normal" in="SourceGraphic" in2="BackgroundImageFix" result="shape"/>
<feColorMatrix in="SourceAlpha" type="matrix" values="0 0 0 0 0 0 0 0 0 0 0 0 0 0 0 0 0 0 127 0" result="hardAlpha"/>
<feOffset dy="4"/>
<feGaussianBlur stdDeviation="2"/>
<feComposite in2="hardAlpha" operator="arithmetic" k2="-1" k3="1"/>
<feColorMatrix type="matrix" values="0 0 0 0 0 0 0 0 0 0 0 0 0 0 0 0 0 0 0.25 0"/>
<feBlend mode="normal" in2="shape" result="effect1_innerShadow_5_76"/>
</filter>
<linearGradient id="paint0_linear_5_76" x1="231.819" y1="73.5" x2="-100.942" y2="-38.5559" gradientUnits="userSpaceOnUse">
<stop stop-color="#415F97" stop-opacity="0.54"/>
<stop offset="0.572917" stop-color="#47B6C4" stop-opacity="0.41"/>
<stop offset="0.807292" stop-color="white" stop-opacity="0.15"/>
</linearGradient>
<linearGradient id="paint1_linear_5_76" x1="187.568" y1="115.176" x2="-81.658" y2="21.828" gradientUnits="userSpaceOnUse">
<stop stop-color="#415F97" stop-opacity="0.54"/>
<stop offset="0.572917" stop-color="#47B6C4" stop-opacity="0.41"/>
<stop offset="0.807292" stop-color="white" stop-opacity="0.15"/>
</linearGradient>
</defs>
</svg>
