<svg width="80" height="80" viewBox="0 0 80 80" fill="none" xmlns="http://www.w3.org/2000/svg">
<path d="M7.34649 14.0475L3.34961 6H50.3265C70.4722 6 78 15.1767 78 26.5221C78 37.8676 69.8449 42.1691 69.8449 42.1691C69.8449 42.1691 63.984 46.2915 48.7313 46.2915V67.6201L39.7338 74.2159V39.0505H50.3265C50.3265 39.0505 70.4722 39.6061 70.4722 26.5221C70.4722 13.4382 50.3265 14.0475 50.3265 14.0475H7.34649Z" fill="white"/>
<path d="M34.3168 33.4581V74.1977H18.9028C18.9028 74.1977 13.0886 74.1977 9.31382 71.7063C1.71439 66.6907 3.09872 48.3344 3.09872 48.3344H11.608V56.5612C11.608 68.8565 24.7458 68.7669 24.7458 56.5612V20.2666H34.3168H52.7777C67.6003 20.2666 67.2597 33.4581 52.7777 33.4581H34.3168Z" fill="white"/>
</svg>
