<svg width="106" height="108" viewBox="0 0 106 108" fill="none" xmlns="http://www.w3.org/2000/svg">
<g filter="url(#filter0_d_48_38)">
<path d="M101.108 59.9022C100.526 58.1365 99.0035 56.9067 97.034 56.6116C96.1053 56.4726 95.0418 56.5319 93.7832 56.792C91.5895 57.2459 89.962 57.4187 88.7742 57.4521C93.2575 49.8619 96.9029 41.2063 99.0016 33.0585C102.395 19.8837 100.582 13.8818 98.4626 11.167C92.8545 3.98123 84.6724 0.120977 74.8014 0.00285975C69.5356 -0.0617057 64.913 0.980837 62.5015 1.73056C60.2563 1.33329 57.8421 1.11149 55.309 1.07047C50.5607 0.99451 46.3652 2.0325 42.7804 4.16582C40.7957 3.49281 37.6105 2.54408 33.932 1.93869C25.2806 0.514446 18.3079 1.62421 13.2076 5.23722C7.03173 9.61172 4.16876 17.2122 4.69825 27.8276C4.86642 31.1979 6.74653 41.4524 9.70683 51.1775C11.4082 56.7673 13.2224 61.4092 15.0991 64.9755C17.7606 70.0325 20.6084 73.0105 23.8054 74.08C25.5973 74.6786 28.853 75.0978 32.2773 72.238C32.7113 72.7651 33.2904 73.2889 34.0589 73.7754C35.035 74.3926 36.2284 74.8969 37.4203 75.1958C41.7157 76.2726 45.7392 76.0033 49.1718 74.494C49.193 75.1062 49.2093 75.6911 49.2229 76.1962C49.2456 77.0154 49.2684 77.8187 49.2983 78.57C49.5017 83.6494 49.8463 87.5989 50.8674 90.3623C50.9235 90.5142 50.9989 90.7459 51.0784 90.9916C51.5878 92.5556 52.4396 95.1739 54.6068 97.2244C56.8509 99.3487 59.5654 100 62.0515 100C63.2984 100 64.488 99.8359 65.5315 99.6118C69.2508 98.8124 73.475 97.5947 76.5308 93.2316C79.4199 89.107 80.8243 82.8947 81.0784 73.1062C81.1114 72.8293 81.1417 72.565 81.1708 72.3132L81.2314 71.7959L81.912 71.8559L82.0874 71.8677C85.8756 72.0409 90.5078 71.2353 93.3525 69.9102C95.6004 68.8642 102.804 65.0507 101.108 59.9022Z" fill="black"/>
<path d="M94.6306 60.9033C83.3665 63.2333 82.592 59.4092 82.592 59.4092C94.4847 41.7133 99.4566 19.2509 95.1665 13.7533C83.4616 -1.24298 63.2004 5.84936 62.8621 6.03318L62.7534 6.05293C60.5279 5.58958 58.0376 5.31385 55.2383 5.26789C50.1418 5.18434 46.2755 6.60782 43.3417 8.83875C43.3417 8.83875 7.19764 -6.09261 8.87891 27.6175C9.23645 34.7888 19.1294 81.8803 30.929 67.6565C35.2418 62.4551 39.4092 58.0575 39.4092 58.0575C41.4787 59.4361 43.9565 60.1395 46.5539 59.887L46.7558 59.7153C46.6929 60.3609 46.7217 60.9925 46.8365 61.7404C43.7966 65.146 44.6901 65.7438 38.6134 66.9983C32.4644 68.2691 36.0766 70.5312 38.435 71.1229C41.2942 71.8396 47.9087 72.8551 52.378 66.5813L52.2 67.2972C53.3907 68.2539 54.227 73.5194 54.0869 78.2931C53.9467 83.0664 53.8532 86.3436 54.7914 88.9035C55.7303 91.4633 56.6654 97.2229 64.654 95.5066C71.3287 94.0721 74.7878 90.3551 75.2692 84.1545C75.6105 79.7466 76.3835 80.3983 76.432 76.4571L77.052 74.5916C77.7667 68.6162 77.1656 66.6884 81.2777 67.5851L82.2776 67.6732C85.3038 67.811 89.2656 67.1848 91.5907 66.1012C96.597 63.7715 99.5664 59.8813 94.6298 60.9033H94.6306Z" fill="#336791"/>
<path d="M45.4573 30.8247C44.4423 30.683 43.523 30.8141 43.0579 31.1673C42.7966 31.3659 42.7156 31.5961 42.6936 31.7544C42.6353 32.1741 42.9284 32.6382 43.1087 32.8775C43.6185 33.555 44.3631 34.0207 45.1002 34.1232C45.207 34.1384 45.3134 34.1452 45.4191 34.1452C46.6481 34.1452 47.7658 33.1855 47.8643 32.4772C47.9874 31.59 46.703 30.9986 45.4573 30.8251V30.8247ZM79.0843 30.8528C78.9873 30.1574 77.7533 29.9591 76.5822 30.1225C75.4127 30.2858 74.2787 30.8152 74.3734 31.5121C74.4491 32.0541 75.4252 32.9793 76.5803 32.9793C76.6781 32.9793 76.7765 32.9728 76.8758 32.9588C77.6469 32.8517 78.2128 32.3606 78.4817 32.0776C78.8907 31.6462 79.1278 31.1654 79.0843 30.8528Z" fill="url(#paint0_linear_48_38)" fill-opacity="0.85"/>
<path d="M98.3789 60.6388C97.9494 59.3365 96.567 58.9176 94.2702 59.3931C87.4508 60.8044 85.0086 59.8268 84.2068 59.2347C89.5074 51.1374 93.868 41.3493 96.2204 32.217C97.3347 27.8911 97.9501 23.8736 98.0005 20.599C98.0562 17.005 97.4457 14.3639 96.1867 12.7505C91.1107 6.24643 83.6607 2.75761 74.6426 2.6619C68.4428 2.59202 63.2047 4.18299 62.1893 4.63039C60.0509 4.09716 57.7197 3.76977 55.1817 3.72799C50.5276 3.65241 46.5045 4.76978 43.1737 7.04743C41.7269 6.50735 37.9879 5.22022 33.4152 4.48151C25.51 3.20539 19.228 4.17236 14.7451 7.35696C9.39603 11.1572 6.92657 17.9503 7.40494 27.547C7.56591 30.7757 9.40057 40.7082 12.2957 50.2202C16.1067 62.7399 20.2495 69.8273 24.6082 71.2853C25.1183 71.4558 25.7065 71.5751 26.3553 71.5751C27.9453 71.5751 29.8948 70.8565 31.923 68.4114C34.3968 65.4355 36.9558 62.5319 39.5968 59.7041C41.3103 60.6263 43.1927 61.1413 45.1179 61.1929C45.1217 61.2434 45.1266 61.294 45.1311 61.3441C44.7997 61.7404 44.4752 62.1424 44.1577 62.55C42.8238 64.248 42.5462 64.6016 38.2523 65.4881C37.0308 65.741 33.7868 66.4114 33.7391 68.6917C33.6876 71.1831 37.5739 72.2295 38.0167 72.3404C39.5597 72.7278 41.0463 72.9188 42.464 72.9188C45.9117 72.9188 48.9459 71.7825 51.3707 69.5838C51.2961 78.4658 51.6653 87.2178 52.7289 89.8844C53.6 92.0675 55.7278 97.4025 62.4491 97.4021C63.4354 97.4021 64.5209 97.287 65.7151 97.0303C72.7299 95.5225 75.7762 92.4135 76.9545 85.5592C77.5851 81.8961 78.6672 73.149 79.1763 68.4569C80.2504 68.7931 81.6332 68.9469 83.1281 68.9465C86.246 68.9465 89.8438 68.2822 92.1 67.2321C94.6346 66.0517 99.2084 63.1553 98.3789 60.6388ZM81.6737 28.9333C81.6506 30.3184 81.4605 31.5759 81.259 32.8885C81.042 34.3002 80.8178 35.7598 80.7613 37.5315C80.7057 39.2558 80.9204 41.0485 81.128 42.7822C81.5476 46.284 81.9782 49.889 80.3114 53.4462C80.0345 52.9542 79.7878 52.4457 79.5728 51.9236C79.3656 51.42 78.9157 50.611 78.2926 49.4914C75.869 45.1328 70.1934 34.9261 73.0988 30.7612C73.9643 29.5216 76.1606 28.247 81.6737 28.9333ZM74.9911 5.46671C83.0713 5.64559 89.4631 8.67676 93.9884 14.4755C97.4593 18.9233 93.6373 39.1616 82.5729 56.6213C82.4616 56.4794 82.3498 56.338 82.2373 56.1971L82.0972 56.0216C84.9564 51.2867 84.3973 46.6019 83.8997 42.4484C83.6951 40.7439 83.502 39.1339 83.5512 37.6215C83.602 36.0188 83.8133 34.6439 84.0178 33.3146C84.2689 31.6766 84.5246 29.9815 84.4541 27.9834C84.5068 27.7738 84.528 27.5261 84.5003 27.2322C84.3204 25.3161 82.1388 19.5815 77.6923 14.3912C75.26 11.5522 71.713 8.3752 66.8699 6.23238C68.953 5.79941 71.8016 5.39569 74.9911 5.46671ZM29.7766 66.6218C27.542 69.316 25.9989 68.7995 25.4914 68.6301C22.1849 67.5242 18.3482 60.5161 14.9656 49.4032C12.0386 39.7875 10.3281 30.1182 10.1925 27.4069C9.76531 18.8318 11.8382 12.8557 16.3541 9.6441C23.7033 4.41809 35.7862 7.5461 40.6414 9.13252C40.5717 9.20164 40.499 9.26621 40.4301 9.33647C32.4627 17.4049 32.6517 31.19 32.6714 32.0328C32.6706 32.3579 32.6979 32.8182 32.735 33.4514C32.8721 35.77 33.1274 40.0853 32.4456 44.9721C31.8124 49.5134 33.2084 53.9582 36.2752 57.1671C36.5899 57.4958 36.9207 57.8086 37.2664 58.1044C35.9014 59.5704 32.9346 62.8124 29.7766 66.6218ZM38.2905 55.2305C35.8188 52.6441 34.6962 49.0466 35.2101 45.3595C35.9298 40.1973 35.6643 35.7013 35.5215 33.2858C35.5014 32.9477 35.4836 32.6515 35.4734 32.4179C36.6373 31.383 42.0311 28.4851 45.8776 29.3689C47.6328 29.7719 48.7024 30.9705 49.147 33.0321C51.4483 43.7055 49.4515 48.1541 47.8472 51.7291C47.5165 52.4656 47.204 53.1617 46.9374 53.8818L46.7306 54.4386C46.2072 55.8461 45.7201 57.1549 45.4182 58.3976C42.7905 58.39 40.2343 57.2643 38.2905 55.2301V55.2305ZM38.6939 69.6248C37.9265 69.4326 37.2365 69.0988 36.8316 68.8219C37.1698 68.6624 37.7716 68.4452 38.8155 68.2294C43.8669 67.1869 44.6471 66.4509 46.3507 64.2818C46.7412 63.7843 47.184 63.2207 47.7972 62.534L47.7979 62.5332C48.7111 61.5078 49.1288 61.6817 49.8863 61.997C50.5003 62.2514 51.0983 63.0232 51.3407 63.8724C51.4555 64.2735 51.5843 65.0346 51.1627 65.6271C47.604 70.6237 42.4181 70.5595 38.6939 69.6248ZM65.1303 94.2935C58.9506 95.6212 56.7626 92.4594 55.3207 88.8449C54.3901 86.5114 53.9325 75.9887 54.2571 64.368C54.2613 64.2135 54.2393 64.0642 54.1969 63.9237C54.159 63.6462 54.1012 63.3718 54.0242 63.1026C53.5417 61.4117 52.3656 59.9973 50.9548 59.4109C50.3942 59.1781 49.3656 58.7508 48.1293 59.068C48.3929 57.9787 48.8501 56.7485 49.3459 55.4166L49.5538 54.8564C49.7879 54.2248 50.0818 53.5704 50.3924 52.8776C52.0714 49.1374 54.3707 44.0143 51.8752 32.4407C50.9404 28.1057 47.8187 25.9887 43.0866 26.4805C40.2498 26.7749 37.6542 27.9226 36.3597 28.5808C36.0813 28.7221 35.8267 28.8588 35.5889 28.9918C35.9502 24.6241 37.3152 16.4615 42.4216 11.297C45.6368 8.04591 49.9185 6.44013 55.1354 6.52672C65.4147 6.69535 72.0065 11.9852 75.7266 16.3935C78.9323 20.1919 80.6682 24.0183 81.3609 26.0821C76.1512 25.5508 72.608 26.582 70.8119 29.157C66.9044 34.7582 72.9496 45.6296 75.855 50.8545C76.3879 51.8119 76.8477 52.6395 76.9924 52.9912C77.9385 55.2905 79.1634 56.8256 80.0576 57.946C80.3318 58.2894 80.5977 58.6225 80.8 58.9134C79.2221 59.3695 76.3879 60.4235 76.6462 65.6916C76.4379 68.335 74.9566 80.7111 74.204 85.0837C73.2106 90.8605 71.0907 93.012 65.1303 94.2938V94.2935ZM90.9247 64.6935C89.3112 65.4444 86.6111 66.0076 84.0462 66.1288C81.2132 66.2617 79.7709 65.8105 79.4315 65.5329C79.2725 62.2499 80.4909 61.907 81.7805 61.5439C81.9832 61.4869 82.1809 61.4311 82.3718 61.3642C82.4903 61.4611 82.6202 61.5572 82.7626 61.6513C85.0397 63.1584 89.101 63.3209 94.8349 62.1341L94.8978 62.1215C94.1244 62.8466 92.801 63.8196 90.9247 64.6935Z" fill="url(#paint1_linear_48_38)" fill-opacity="0.85"/>
</g>
<defs>
<filter id="filter0_d_48_38" x="0.63623" y="0" width="104.728" height="108" filterUnits="userSpaceOnUse" color-interpolation-filters="sRGB">
<feFlood flood-opacity="0" result="BackgroundImageFix"/>
<feColorMatrix in="SourceAlpha" type="matrix" values="0 0 0 0 0 0 0 0 0 0 0 0 0 0 0 0 0 0 127 0" result="hardAlpha"/>
<feOffset dy="4"/>
<feGaussianBlur stdDeviation="2"/>
<feComposite in2="hardAlpha" operator="out"/>
<feColorMatrix type="matrix" values="0 0 0 0 0 0 0 0 0 0 0 0 0 0 0 0 0 0 0.25 0"/>
<feBlend mode="normal" in2="BackgroundImageFix" result="effect1_dropShadow_48_38"/>
<feBlend mode="normal" in="SourceGraphic" in2="effect1_dropShadow_48_38" result="shape"/>
</filter>
<linearGradient id="paint0_linear_48_38" x1="41.5843" y1="30.184" x2="41.8973" y2="35.3058" gradientUnits="userSpaceOnUse">
<stop offset="0.5" stop-color="#FBE17C"/>
<stop offset="1" stop-color="#A3853A" stop-opacity="0.74"/>
</linearGradient>
<linearGradient id="paint1_linear_48_38" x1="4.58856" y1="5.341" x2="55.8669" y2="95.7259" gradientUnits="userSpaceOnUse">
<stop offset="0.5" stop-color="#FBE17C"/>
<stop offset="1" stop-color="#A3853A" stop-opacity="0.74"/>
</linearGradient>
</defs>
</svg>
