<svg width="100" height="98" viewBox="0 0 100 98" fill="none" xmlns="http://www.w3.org/2000/svg">
<path d="M50.0002 0.234375C22.3894 0.234375 0 22.6199 0 50.2346C0 72.3263 14.3266 91.0684 34.1933 97.6799C36.692 98.1427 37.6096 96.5953 37.6096 95.2745C37.6096 94.0824 37.563 90.1433 37.5418 85.9655C23.6313 88.9901 20.6961 80.0661 20.6961 80.0661C18.4217 74.2867 15.1446 72.7502 15.1446 72.7502C10.6083 69.6468 15.4865 69.7104 15.4865 69.7104C20.5075 70.0633 23.1513 74.8631 23.1513 74.8631C27.6108 82.5071 34.8482 80.297 37.7014 79.0198C38.15 75.7878 39.4461 73.5824 40.8758 72.3338C29.7703 71.0691 18.0954 66.7818 18.0954 47.6233C18.0954 42.1647 20.0487 37.704 23.2474 34.2026C22.7282 32.943 21.0169 27.8577 23.7317 20.9705C23.7317 20.9705 27.9304 19.6266 37.4853 26.0958C41.4734 24.9876 45.7509 24.4323 50.0002 24.4135C54.2495 24.4323 58.5301 24.9876 62.526 26.0958C72.0696 19.6266 76.2624 20.9705 76.2624 20.9705C78.9839 27.8577 77.2718 32.943 76.7526 34.2026C79.9584 37.704 81.8983 42.1643 81.8983 47.6233C81.8983 66.8273 70.2014 71.0562 59.0677 72.2938C60.861 73.8455 62.459 76.8885 62.459 81.5531C62.459 88.243 62.4009 93.6275 62.4009 95.2745C62.4009 96.6051 63.3009 98.1642 65.8357 97.6733C85.6915 91.0543 100 72.3189 100 50.2346C100 22.6199 77.6137 0.234375 50.0002 0.234375Z" fill="#161614"/>
<path d="M18.7269 71.4609C18.6171 71.7091 18.2257 71.7836 17.8701 71.6134C17.5073 71.4503 17.3034 71.1115 17.421 70.8621C17.5289 70.6064 17.9202 70.5351 18.2822 70.7068C18.6457 70.8696 18.8528 71.2115 18.7269 71.4609ZM21.1864 73.6553C20.948 73.8765 20.4817 73.7738 20.1653 73.4244C19.8382 73.0758 19.777 72.6099 20.019 72.3852C20.2649 72.1644 20.717 72.2675 21.0448 72.6166C21.3719 72.9691 21.4354 73.4322 21.186 73.6557L21.1864 73.6553ZM22.8738 76.4631C22.5672 76.676 22.066 76.4764 21.7566 76.0317C21.4503 75.5874 21.4503 75.0541 21.7633 74.8404C22.0738 74.6267 22.5672 74.8188 22.8809 75.26C23.1867 75.7121 23.1867 76.2454 22.8734 76.4635L22.8738 76.4631ZM25.727 79.7151C25.4529 80.0171 24.8694 79.9363 24.442 79.5238C24.0051 79.1206 23.8832 78.5485 24.1581 78.2462C24.4353 77.9434 25.0224 78.0285 25.4529 78.4375C25.887 78.8399 26.0196 79.4163 25.7274 79.7151H25.727ZM29.4148 80.8131C29.2944 81.2045 28.732 81.3825 28.1658 81.2163C27.6003 81.0449 27.2301 80.5861 27.3442 80.1904C27.4619 79.7963 28.0266 79.6108 28.5971 79.7889C29.1618 79.9594 29.5328 80.4147 29.4152 80.8131H29.4148ZM33.6123 81.2786C33.6264 81.6911 33.146 82.0331 32.5515 82.0405C31.9535 82.0535 31.47 81.7198 31.4637 81.3143C31.4637 80.8978 31.9331 80.559 32.5307 80.5492C33.1252 80.5375 33.6123 80.8688 33.6123 81.2786ZM37.7353 81.1206C37.8066 81.5229 37.3933 81.9362 36.8031 82.046C36.2228 82.1519 35.6855 81.9037 35.6114 81.5049C35.5393 81.0923 35.9604 80.6794 36.5396 80.5724C37.131 80.4696 37.66 80.7116 37.7353 81.1206Z" fill="#161614"/>
</svg>
