<svg width="20" height="20" viewBox="0 0 20 20" fill="none" xmlns="http://www.w3.org/2000/svg">
<path d="M20 4.59557C19.2645 4.92148 18.4744 5.14168 17.6438 5.24122C18.5008 4.7284 19.142 3.92127 19.4477 2.97045C18.6425 3.44873 17.7612 3.78539 16.8422 3.96578C16.2242 3.30593 15.4057 2.86856 14.5136 2.7216C13.6216 2.57463 12.706 2.72628 11.909 3.15301C11.1119 3.57973 10.4781 4.25766 10.1058 5.08153C9.73358 5.9054 9.64374 6.82912 9.85026 7.70929C8.2187 7.62737 6.62259 7.2033 5.16553 6.4646C3.70847 5.7259 2.42301 4.68908 1.39258 3.42143C1.04025 4.0292 0.837664 4.73386 0.837664 5.48433C0.837271 6.15991 1.00364 6.82515 1.32201 7.42102C1.64038 8.01689 2.10091 8.52497 2.66273 8.90016C2.01117 8.87943 1.37397 8.70337 0.804193 8.38664V8.43949C0.804127 9.38703 1.13189 10.3054 1.73186 11.0388C2.33184 11.7722 3.16707 12.2754 4.09583 12.4631C3.4914 12.6267 2.85769 12.6508 2.24258 12.5336C2.50462 13.3489 3.01506 14.0618 3.70243 14.5726C4.3898 15.0834 5.21969 15.3665 6.07593 15.3822C4.62242 16.5232 2.82735 17.1421 0.979477 17.1394C0.652146 17.1395 0.325091 17.1204 0 17.0821C1.87569 18.2881 4.05914 18.9282 6.28909 18.9257C13.8378 18.9257 17.9644 12.6736 17.9644 7.25126C17.9644 7.07509 17.96 6.89717 17.9521 6.721C18.7548 6.14052 19.4476 5.4217 19.9982 4.59822L20 4.59557Z" fill="white"/>
</svg>
